<svg width="50" height="50" viewBox="0 0 50 50" fill="none" xmlns="http://www.w3.org/2000/svg">
<g clip-path="url(#clip0_2047_2)">
<rect width="50" height="50" fill="#E9F7F2"/>
<path d="M9.2002 35V34.1C9.4802 34.1 9.8802 34.07 10.4002 34.01C10.9202 33.95 11.4002 33.82 11.8402 33.62V15.11C11.4002 14.97 10.9302 14.9 10.4302 14.9C9.9502 14.9 9.5702 14.91 9.2902 14.93L9.2002 14.03C10.5202 13.87 11.8402 13.72 13.1602 13.58C14.4802 13.44 15.7702 13.37 17.0302 13.37C18.2502 13.37 19.3502 13.57 20.3302 13.97C21.3302 14.35 22.1802 14.87 22.8802 15.53C23.6002 16.19 24.1502 16.93 24.5302 17.75C24.9102 18.57 25.1002 19.41 25.1002 20.27C25.1002 21.43 24.7502 22.54 24.0502 23.6C23.3702 24.64 22.3802 25.48 21.0802 26.12C19.7802 26.74 18.1902 27.02 16.3102 26.96L16.1602 26C18.2802 25.86 19.8302 25.31 20.8102 24.35C21.8102 23.39 22.3102 22.24 22.3102 20.9C22.3102 19.88 22.0902 18.97 21.6502 18.17C21.2102 17.35 20.6202 16.68 19.8802 16.16C19.1402 15.62 18.3002 15.25 17.3602 15.05C16.4202 14.83 15.4502 14.8 14.4502 14.96V33.62C14.9502 33.82 15.4802 33.95 16.0402 34.01C16.6002 34.07 17.0402 34.1 17.3602 34.1V35H9.2002ZM33.8485 35.42C32.9085 35.42 31.9985 35.34 31.1185 35.18C30.2585 35.04 29.5385 34.88 28.9585 34.7C28.3785 34.52 28.0585 34.39 27.9985 34.31L27.0685 28.55L28.0585 28.37C28.4585 30.09 29.0685 31.46 29.8885 32.48C30.7085 33.5 31.9285 34.01 33.5485 34.01C34.8685 34.01 35.9485 33.69 36.7885 33.05C37.6285 32.39 38.0485 31.49 38.0485 30.35C38.0485 29.55 37.8185 28.85 37.3585 28.25C36.8985 27.63 36.2985 27.07 35.5585 26.57C34.8385 26.07 34.0585 25.58 33.2185 25.1C32.3985 24.6 31.6185 24.07 30.8785 23.51C30.1585 22.93 29.5685 22.27 29.1085 21.53C28.6485 20.79 28.4185 19.91 28.4185 18.89C28.4185 17.65 28.7385 16.63 29.3785 15.83C30.0185 15.01 30.8785 14.4 31.9585 14C33.0385 13.58 34.2285 13.37 35.5285 13.37C36.4485 13.37 37.2785 13.45 38.0185 13.61C38.7585 13.75 39.3185 13.86 39.6985 13.94L40.3585 18.8L39.3685 18.92C39.2085 17.66 38.8085 16.65 38.1685 15.89C37.5285 15.13 36.5785 14.75 35.3185 14.75C34.5585 14.75 33.8485 14.9 33.1885 15.2C32.5485 15.5 32.0285 15.91 31.6285 16.43C31.2485 16.95 31.0585 17.54 31.0585 18.2C31.0585 18.98 31.2885 19.66 31.7485 20.24C32.2285 20.82 32.8385 21.35 33.5785 21.83C34.3185 22.29 35.0985 22.76 35.9185 23.24C36.7385 23.72 37.5185 24.26 38.2585 24.86C38.9985 25.46 39.5985 26.17 40.0585 26.99C40.5385 27.81 40.7785 28.8 40.7785 29.96C40.7785 31.14 40.4685 32.14 39.8485 32.96C39.2285 33.76 38.3985 34.37 37.3585 34.79C36.3185 35.21 35.1485 35.42 33.8485 35.42Z" fill="#232323"/>
</g>
<defs>
<clipPath id="clip0_2047_2">
<rect width="50" height="50" fill="white"/>
</clipPath>
</defs>
</svg>
