<svg width="164" height="26" viewBox="0 0 164 26" fill="none" xmlns="http://www.w3.org/2000/svg">
<path d="M7.21387 0.728516C9.71517 0.728516 11.5911 1.39811 12.8418 2.7373C14.1035 4.0765 14.7344 5.98014 14.7344 8.44824C14.7344 9.65462 14.5794 10.778 14.2695 11.8184C13.9596 12.8477 13.4837 13.7497 12.8418 14.5244C12.1999 15.2881 11.3864 15.8857 10.4014 16.3174C9.41634 16.738 8.25423 16.9482 6.91504 16.9482H5.78613V25H0.00878906V0.728516H7.21387ZM6.66602 5.62598H5.78613V12.0508H6.30078C6.83203 12.0508 7.29688 11.9346 7.69531 11.7021C8.09375 11.4587 8.39811 11.0768 8.6084 10.5566C8.82975 10.0254 8.94043 9.33366 8.94043 8.48145C8.94043 7.52962 8.75228 6.81576 8.37598 6.33984C7.99967 5.86393 7.42969 5.62598 6.66602 5.62598ZM23.7251 5.8584C25.5956 5.8584 27.0731 6.41732 28.1577 7.53516C29.2534 8.65299 29.8013 10.363 29.8013 12.665V25H25.8335L24.9038 22.5098H24.8042C24.4058 23.1406 23.9797 23.6663 23.5259 24.0869C23.0832 24.5075 22.5741 24.8174 21.9986 25.0166C21.4341 25.2269 20.759 25.332 19.9732 25.332C18.8996 25.332 18.0363 25.0387 17.3833 24.4521C16.7303 23.8656 16.2544 23.1074 15.9556 22.1777C15.6678 21.248 15.5239 20.2741 15.5239 19.2559C15.5239 17.2415 16.0607 15.7363 17.1343 14.7402C18.2189 13.7441 19.7905 13.2074 21.8491 13.1299L24.3062 13.0303V12.5488C24.3062 11.7852 24.1568 11.2096 23.8579 10.8223C23.5702 10.4349 23.1164 10.2412 22.4966 10.2412C21.9543 10.2412 21.3511 10.3574 20.687 10.5898C20.034 10.8112 19.287 11.1598 18.4458 11.6357L17.0181 7.55176C17.9367 7.00944 18.9605 6.5944 20.0894 6.30664C21.2183 6.00781 22.4302 5.8584 23.7251 5.8584ZM24.3062 16.5996L23.2769 16.666C22.5353 16.6992 21.9764 16.915 21.6001 17.3135C21.2238 17.7008 21.0357 18.2708 21.0357 19.0234C21.0357 19.6654 21.1463 20.1468 21.3677 20.4678C21.589 20.7887 21.9211 20.9492 22.3638 20.9492C22.9061 20.9492 23.3654 20.7057 23.7417 20.2188C24.118 19.7207 24.3062 19.0677 24.3062 18.2598V16.5996ZM41.3985 5.8584C41.6198 5.8584 41.8467 5.86947 42.0791 5.8916C42.3116 5.91374 42.5993 5.96908 42.9424 6.05762L42.4942 11.9844C42.2728 11.9069 42.0238 11.8516 41.7471 11.8184C41.4704 11.7852 41.155 11.7686 40.8008 11.7686C40.2585 11.7686 39.7881 11.8516 39.3897 12.0176C39.0023 12.1836 38.6814 12.4271 38.4268 12.748C38.1833 13.0579 38.0007 13.4508 37.8789 13.9268C37.7572 14.3916 37.6963 14.9339 37.6963 15.5537V25H32.1846V6.19043H36.4014L37.1983 9.19531H37.4639C37.6853 8.6862 37.9841 8.17708 38.3604 7.66797C38.7367 7.14779 39.1794 6.71615 39.6885 6.37305C40.2087 6.02995 40.7787 5.8584 41.3985 5.8584ZM50.5552 5.8916C52.0494 5.8916 53.3277 6.22363 54.3902 6.8877C55.4527 7.55176 56.2606 8.52018 56.814 9.79297C57.3785 11.0658 57.6607 12.6208 57.6607 14.458V17.3467H48.6793C48.6793 18.6084 48.9393 19.527 49.4595 20.1025C49.9908 20.667 50.7987 20.9492 51.8834 20.9492C52.7466 20.9492 53.549 20.8385 54.2906 20.6172C55.0321 20.3958 55.8345 20.0195 56.6978 19.4883V23.9873C55.8899 24.4632 55.0211 24.8063 54.0914 25.0166C53.1617 25.2269 52.1545 25.332 51.0699 25.332C49.2548 25.332 47.7717 24.9668 46.6207 24.2363C45.4807 23.4948 44.6395 22.4046 44.0972 20.9658C43.5549 19.527 43.2837 17.7673 43.2837 15.6865C43.2837 13.5837 43.5549 11.8073 44.0972 10.3574C44.6506 8.89648 45.4641 7.78971 46.5377 7.03711C47.6223 6.27344 48.9615 5.8916 50.5552 5.8916ZM50.688 10.1416C50.1125 10.1416 49.6311 10.3906 49.2437 10.8887C48.8674 11.3867 48.6793 12.25 48.6793 13.4785H52.564C52.564 12.6816 52.4865 12.0397 52.3316 11.5527C52.1767 11.0547 51.9553 10.695 51.6675 10.4736C51.3908 10.2523 51.0643 10.1416 50.688 10.1416ZM68.7266 5.8584C70.3536 5.8584 71.6208 6.46159 72.5284 7.66797C73.4359 8.87435 73.8897 10.5732 73.8897 12.7646V25H68.378V14.5244C68.378 13.2848 68.2784 12.3496 68.0792 11.7188C67.88 11.0768 67.4373 10.7559 66.7511 10.7559C65.9763 10.7559 65.4506 11.1654 65.1739 11.9844C64.9083 12.8034 64.7755 14.2754 64.7755 16.4004V25H59.2637V6.19043H63.5802L64.1944 8.51465H64.5098C64.7976 7.91699 65.1407 7.42448 65.5391 7.03711C65.9376 6.63867 66.4024 6.34538 66.9337 6.15723C67.4649 5.95801 68.0626 5.8584 68.7266 5.8584ZM83.5611 20.584C83.9042 20.584 84.275 20.5286 84.6734 20.418C85.0829 20.2962 85.5146 20.1357 85.9684 19.9365V24.2861C85.3596 24.6292 84.7177 24.8893 84.0426 25.0664C83.3785 25.2435 82.6591 25.332 81.8844 25.332C80.6559 25.332 79.6598 25.0996 78.8961 24.6348C78.1324 24.1589 77.5735 23.4395 77.2193 22.4766C76.8652 21.5026 76.6881 20.2796 76.6881 18.8076V10.7227H74.7789V7.80078L77.1695 6.37305L78.4645 2.42188H82.1998V6.19043H85.7359V10.7227H82.1998V18.7412C82.1998 19.3499 82.3105 19.8092 82.5318 20.1191C82.7532 20.429 83.0963 20.584 83.5611 20.584ZM105.129 17.6289C105.129 19.1341 104.813 20.4678 104.182 21.6299C103.562 22.7809 102.683 23.6885 101.543 24.3525C100.403 25.0055 99.0579 25.332 97.5084 25.332C96.8112 25.332 96.1305 25.2822 95.4664 25.1826C94.8135 25.0941 94.1605 24.9391 93.5075 24.7178C92.8545 24.4964 92.1793 24.1921 91.4821 23.8047V17.9609C92.4339 18.6029 93.4079 19.1064 94.4039 19.4717C95.4111 19.8258 96.3297 20.0029 97.1598 20.0029C97.6357 20.0029 98.0231 19.9255 98.3219 19.7705C98.6318 19.6156 98.8587 19.4053 99.0026 19.1396C99.1575 18.863 99.235 18.5475 99.235 18.1934C99.235 17.8392 99.1741 17.5127 99.0524 17.2139C98.9306 16.904 98.6595 16.5664 98.2389 16.2012C97.8183 15.8249 97.1653 15.36 96.2799 14.8066C95.5716 14.3529 94.9297 13.8991 94.3541 13.4453C93.7786 12.9805 93.2861 12.4769 92.8766 11.9346C92.4782 11.3812 92.1683 10.7448 91.9469 10.0254C91.7366 9.30599 91.6315 8.45931 91.6315 7.48535C91.6315 6.04655 91.9137 4.7959 92.4782 3.7334C93.0426 2.6709 93.8727 1.84635 94.9684 1.25977C96.0641 0.673177 97.4088 0.379883 99.0026 0.379883C100.01 0.379883 101.022 0.523763 102.041 0.811523C103.059 1.09928 104.088 1.53646 105.129 2.12305L103.585 7.18652C102.743 6.65527 101.963 6.26237 101.244 6.00781C100.524 5.75326 99.8548 5.62598 99.235 5.62598C98.8255 5.62598 98.4879 5.69792 98.2223 5.8418C97.9677 5.97461 97.7796 6.15723 97.6579 6.38965C97.5361 6.62207 97.4752 6.8877 97.4752 7.18652C97.4752 7.61816 97.5472 7.98893 97.6911 8.29883C97.8349 8.60872 98.1282 8.94076 98.5709 9.29492C99.0247 9.63802 99.7109 10.0918 100.63 10.6562C101.603 11.2539 102.423 11.8848 103.087 12.5488C103.762 13.2129 104.271 13.9544 104.614 14.7734C104.957 15.5924 105.129 16.5443 105.129 17.6289ZM113.588 25.332C111.906 25.332 110.506 24.9945 109.388 24.3193C108.27 23.6331 107.434 22.5762 106.881 21.1484C106.328 19.7207 106.051 17.9001 106.051 15.6865C106.051 13.8604 106.311 12.2057 106.831 10.7227C107.362 9.23958 108.193 8.06087 109.321 7.18652C110.45 6.30111 111.906 5.8584 113.688 5.8584C114.728 5.8584 115.669 5.98014 116.51 6.22363C117.362 6.45605 118.159 6.81022 118.901 7.28613L117.44 11.6689C116.875 11.2926 116.316 11.016 115.763 10.8389C115.209 10.6507 114.645 10.5566 114.069 10.5566C113.571 10.5566 113.14 10.7559 112.775 11.1543C112.409 11.5527 112.122 12.1338 111.911 12.8975C111.712 13.6501 111.612 14.5798 111.612 15.6865C111.612 16.7822 111.712 17.7008 111.911 18.4424C112.111 19.1729 112.398 19.7262 112.775 20.1025C113.162 20.4678 113.638 20.6504 114.202 20.6504C114.922 20.6504 115.636 20.512 116.344 20.2354C117.052 19.9476 117.744 19.5326 118.419 18.9902V23.6719C117.744 24.2363 117.002 24.6569 116.194 24.9336C115.398 25.1992 114.529 25.332 113.588 25.332ZM135.096 15.5537C135.096 16.7601 134.964 17.9443 134.698 19.1064C134.443 20.2575 134.017 21.3034 133.42 22.2441C132.822 23.1849 132.031 23.9375 131.046 24.502C130.072 25.0553 128.86 25.332 127.41 25.332C126.082 25.332 124.936 25.0609 123.973 24.5186C123.01 23.9652 122.219 23.2292 121.599 22.3105C120.98 21.3809 120.52 20.335 120.221 19.1729C119.923 17.9997 119.773 16.7933 119.773 15.5537C119.773 13.7497 120.033 12.1172 120.553 10.6562C121.074 9.18424 121.898 8.0166 123.027 7.15332C124.167 6.29004 125.65 5.8584 127.476 5.8584C129.004 5.8584 130.337 6.24023 131.477 7.00391C132.617 7.75651 133.503 8.85221 134.133 10.291C134.775 11.7298 135.096 13.484 135.096 15.5537ZM125.335 15.6201C125.335 16.738 125.407 17.6787 125.55 18.4424C125.705 19.2061 125.938 19.7816 126.248 20.1689C126.558 20.5563 126.956 20.75 127.443 20.75C127.963 20.75 128.373 20.5618 128.672 20.1855C128.97 19.7982 129.186 19.2171 129.319 18.4424C129.452 17.6676 129.518 16.7048 129.518 15.5537C129.518 14.4027 129.452 13.4508 129.319 12.6982C129.186 11.9456 128.97 11.3812 128.672 11.0049C128.373 10.6286 127.963 10.4404 127.443 10.4404C126.713 10.4404 126.176 10.861 125.833 11.7021C125.501 12.5433 125.335 13.8493 125.335 15.6201ZM151.508 6.19043V25H147.225L146.577 22.6924H146.312C146.013 23.279 145.664 23.7715 145.266 24.1699C144.867 24.5573 144.408 24.8451 143.888 25.0332C143.368 25.2324 142.77 25.332 142.095 25.332C140.999 25.332 140.058 25.0609 139.273 24.5186C138.498 23.9762 137.906 23.196 137.496 22.1777C137.087 21.1484 136.882 19.9033 136.882 18.4424V6.19043H142.394V16.6328C142.394 17.8945 142.499 18.8464 142.709 19.4883C142.931 20.1302 143.312 20.4512 143.855 20.4512C144.519 20.4512 145 20.2464 145.299 19.8369C145.598 19.4274 145.786 18.8519 145.863 18.1104C145.952 17.3688 145.996 16.4945 145.996 15.4873V6.19043H151.508ZM161.213 20.584C161.556 20.584 161.926 20.5286 162.325 20.418C162.734 20.2962 163.166 20.1357 163.62 19.9365V24.2861C163.011 24.6292 162.369 24.8893 161.694 25.0664C161.03 25.2435 160.311 25.332 159.536 25.332C158.307 25.332 157.311 25.0996 156.548 24.6348C155.784 24.1589 155.225 23.4395 154.871 22.4766C154.517 21.5026 154.34 20.2796 154.34 18.8076V10.7227H152.43V7.80078L154.821 6.37305L156.116 2.42188H159.851V6.19043H163.387V10.7227H159.851V18.7412C159.851 19.3499 159.962 19.8092 160.183 20.1191C160.405 20.429 160.748 20.584 161.213 20.584Z" fill="#DB5179"/>
</svg>
