<svg width="26" height="22" viewBox="0 0 26 22" fill="none" xmlns="http://www.w3.org/2000/svg">
<path d="M0.908607 4.04082H24.5324C25.0342 4.04082 25.441 3.63881 25.441 3.14286V0.897959C25.441 0.402005 25.0342 0 24.5324 0H0.908607C0.406772 0 0 0.402005 0 0.897959V3.14286C0 3.63881 0.406772 4.04082 0.908607 4.04082ZM0.908607 13.0204H24.5324C25.0342 13.0204 25.441 12.6184 25.441 12.1224V9.87755C25.441 9.3816 25.0342 8.97959 24.5324 8.97959H0.908607C0.406772 8.97959 0 9.3816 0 9.87755V12.1224C0 12.6184 0.406772 13.0204 0.908607 13.0204ZM0.908607 22H24.5324C25.0342 22 25.441 21.598 25.441 21.102V18.8571C25.441 18.3612 25.0342 17.9592 24.5324 17.9592H0.908607C0.406772 17.9592 0 18.3612 0 18.8571V21.102C0 21.598 0.406772 22 0.908607 22Z" fill="#777777"/>
</svg>
